<svg xmlns="http://www.w3.org/2000/svg" width="32" height="25.6" viewBox="0 0 32 25.6"><path d="M34,6.917a13.772,13.772,0,0,1-3.776,1.006,6.516,6.516,0,0,0,2.9-3.569,13.277,13.277,0,0,1-4.176,1.572A6.643,6.643,0,0,0,21.03,4.61a6.407,6.407,0,0,0-3.286,7.2A18.735,18.735,0,0,1,4.224,5.061a6.414,6.414,0,0,0,2.032,8.616,6.567,6.567,0,0,1-2.976-.8v.079a6.477,6.477,0,0,0,5.28,6.289,6.39,6.39,0,0,1-1.76.267,7.974,7.974,0,0,1-1.232-.11A6.564,6.564,0,0,0,11.7,23.866a13.3,13.3,0,0,1-8.1,2.767A12.909,12.909,0,0,1,2,26.539a18.749,18.749,0,0,0,10.064,2.909,18.714,18.714,0,0,0,13.288-5.32A18.064,18.064,0,0,0,30.8,11.083V10.25A13.354,13.354,0,0,0,34,6.917Z" transform="translate(-2 -3.849)" fill="#ff0b53"/></svg>