<svg xmlns="http://www.w3.org/2000/svg" width="24.399" height="30.499" viewBox="0 0 24.399 30.499">
  <path id="Caminho_76" data-name="Caminho 76" d="M16.2,18.774a2.272,2.272,0,0,0-1.525,3.98v2.12a1.525,1.525,0,1,0,3.05,0v-2.12a2.272,2.272,0,0,0-1.525-3.98Zm7.625-6.1V9.625a7.625,7.625,0,1,0-15.249,0v3.05A4.575,4.575,0,0,0,4,17.249V27.924A4.575,4.575,0,0,0,8.575,32.5H23.824A4.575,4.575,0,0,0,28.4,27.924V17.249A4.575,4.575,0,0,0,23.824,12.674Zm-12.2-3.05a4.575,4.575,0,0,1,9.15,0v3.05h-9.15Zm13.724,18.3a1.525,1.525,0,0,1-1.525,1.525H8.575A1.525,1.525,0,0,1,7.05,27.924V17.249a1.525,1.525,0,0,1,1.525-1.525H23.824a1.525,1.525,0,0,1,1.525,1.525Z" transform="translate(-4 -2)" fill="#ff0b53"/>
</svg>
