<svg xmlns="http://www.w3.org/2000/svg" width="54.857" height="44.572" viewBox="0 0 54.857 44.572"><path d="M54.857,7.277a23.448,23.448,0,0,1-6.48,1.776,11.184,11.184,0,0,0,4.947-6.216,22.474,22.474,0,0,1-7.131,2.722,11.246,11.246,0,0,0-19.454,7.69A11.58,11.58,0,0,0,27,15.814,31.831,31.831,0,0,1,3.819,4.05,11.263,11.263,0,0,0,7.275,19.081,11.109,11.109,0,0,1,2.194,17.7v.123A11.3,11.3,0,0,0,11.2,28.87a11.225,11.225,0,0,1-2.949.37,9.943,9.943,0,0,1-2.129-.192,11.352,11.352,0,0,0,10.509,7.834,22.594,22.594,0,0,1-13.944,4.8A21.065,21.065,0,0,1,0,41.525a31.659,31.659,0,0,0,17.253,5.047c20.695,0,32.009-17.143,32.009-32,0-.5-.017-.977-.041-1.454a22.437,22.437,0,0,0,5.637-5.839Z" transform="translate(0 -2)" fill="#03a9f4"/></svg>