<svg xmlns="http://www.w3.org/2000/svg" width="41.969" height="40" viewBox="0 0 41.969 40"><g transform="translate(-16.4 -18)"><path d="M43.4,40.462A11.231,11.231,0,1,0,32.2,29.2,11.2,11.2,0,0,0,43.4,40.462Zm0-19.508a8.246,8.246,0,1,1-8.246,8.308A8.247,8.247,0,0,1,43.4,20.954Z" transform="translate(-6.077)" fill="#fff"/><path d="M17.877,73.269H56.892a1.5,1.5,0,0,0,1.477-1.477A14.13,14.13,0,0,0,44.277,57.7H30.492A14.13,14.13,0,0,0,16.4,71.792,1.5,1.5,0,0,0,17.877,73.269ZM30.492,60.654H44.277a11.1,11.1,0,0,1,11.015,9.662H19.477A11.1,11.1,0,0,1,30.492,60.654Z" transform="translate(0 -15.269)" fill="#fff"/></g></svg>