<svg xmlns="http://www.w3.org/2000/svg" width="32" height="32" viewBox="0 0 32 32"><path d="M26.544,7.536h0a1.92,1.92,0,1,0,1.92,1.92A1.92,1.92,0,0,0,26.544,7.536Zm7.36,3.872a12.144,12.144,0,0,0-.736-3.888,7.9,7.9,0,0,0-1.856-2.832,7.52,7.52,0,0,0-2.832-1.84A11.68,11.68,0,0,0,24.592,2.1C22.9,2,22.352,2,18,2s-4.9,0-6.592.1a11.68,11.68,0,0,0-3.888.752,7.648,7.648,0,0,0-2.832,1.84A7.52,7.52,0,0,0,2.848,7.52,11.68,11.68,0,0,0,2.1,11.408C2,13.1,2,13.648,2,18s0,4.9.1,6.592a11.68,11.68,0,0,0,.752,3.888,7.52,7.52,0,0,0,1.84,2.832,7.648,7.648,0,0,0,2.832,1.84,11.68,11.68,0,0,0,3.888.752c1.7.1,2.24.1,6.592.1s4.9,0,6.592-.1a11.68,11.68,0,0,0,3.888-.752,7.52,7.52,0,0,0,2.832-1.84,7.76,7.76,0,0,0,1.856-2.832,12.144,12.144,0,0,0,.736-3.888c0-1.7.1-2.24.1-6.592S34,13.1,33.9,11.408ZM31.024,24.4a8.976,8.976,0,0,1-.544,2.976,4.9,4.9,0,0,1-1.2,1.84,5.1,5.1,0,0,1-1.84,1.2,8.976,8.976,0,0,1-2.976.544c-1.6.08-2.192.1-6.4.1s-4.8,0-6.4-.1a9.168,9.168,0,0,1-3.1-.48,5.232,5.232,0,0,1-1.76-1.2,4.8,4.8,0,0,1-1.184-1.84,8.864,8.864,0,0,1-.64-3.04c0-1.6-.1-2.192-.1-6.4s0-4.8.1-6.4a8.864,8.864,0,0,1,.56-3.04A4.8,4.8,0,0,1,6.8,6.8,5.024,5.024,0,0,1,8.56,5.52a9.168,9.168,0,0,1,3.04-.544c1.6,0,2.192-.1,6.4-.1s4.8,0,6.4.1a8.976,8.976,0,0,1,2.976.544,4.9,4.9,0,0,1,1.9,1.28,4.9,4.9,0,0,1,1.2,1.76,8.976,8.976,0,0,1,.544,3.04c.08,1.6.1,2.192.1,6.4S31.1,22.8,31.024,24.4ZM18,9.792a8.192,8.192,0,1,0,5.819,2.394A8.208,8.208,0,0,0,18,9.792Zm0,13.536A5.328,5.328,0,1,1,23.328,18,5.328,5.328,0,0,1,18,23.328Z" transform="translate(-2 -2)" fill="#ff0b53"/></svg>