<svg xmlns="http://www.w3.org/2000/svg" xmlns:xlink="http://www.w3.org/1999/xlink" width="232.869" height="38.903" viewBox="0 0 232.869 38.903"><defs><clipPath id="a"><rect width="232.869" height="38.903" fill="none"/></clipPath></defs><g clip-path="url(#a)"><path d="M13.9,52.8C5.907,52.8,0,46.5,0,38.187,0,29.76,5.907,24.168,13.9,24.168h15.87c8.27,0,14.019,5.71,14.019,14.019S37.923,52.8,29.771,52.8Zm15.87-5c5.277,0,9.018-3.977,9.018-9.372s-3.741-9.254-9.018-9.254H13.9c-5.119,0-8.9,3.82-8.9,9.254C5,43.819,8.742,47.8,13.9,47.8Z" transform="translate(0 -18.854)" fill="#ff0b53"/><path d="M377.149,52.8V29.17H366.28v-5h26.739v5H382.15V52.8Z" transform="translate(-285.747 -18.854)" fill="#fff"/><path d="M501.407,51.4l-4.293-7.206H483.568l2.363-4.057h8.782l-6.379-10.711-13,21.974h-5.71l16.461-27.409a2.794,2.794,0,0,1,2.442-1.614,2.737,2.737,0,0,1,2.4,1.614l16.5,27.409Z" transform="translate(-366.371 -17.457)" fill="#fff"/><path d="M664.171,44.843V40h11.5c3.5,0,5.592-2.206,5.592-5.435,0-3.308-2.087-5.395-5.592-5.395H660.509V52.8h-4.962V24.169H675.67c6.616,0,10.475,3.977,10.475,10.239,0,6.182-3.859,10.436-10.475,10.436Z" transform="translate(-511.413 -18.855)" fill="#fff"/><path d="M819.46,44.843V40h11.5c3.5,0,5.592-2.206,5.592-5.435,0-3.308-2.087-5.395-5.592-5.395H815.8V52.8h-4.962V24.169h20.123c6.616,0,10.475,3.977,10.475,10.239,0,6.182-3.859,10.436-10.475,10.436Z" transform="translate(-632.559 -18.855)" fill="#fff"/><path d="M221.768,23.58a2.854,2.854,0,0,0-2.127-1.024c-1.575,0-2.559,1.142-2.559,2.993V51.54h4.765V30.59l8.2,8.246V31.792Z" transform="translate(-169.353 -17.597)" fill="#ff0b53"/><path d="M300.6,23.094v20.95l-8.2-8.133v6.928h-.166l8.363,8.412a3.177,3.177,0,0,0,2.284,1.063c1.457,0,2.481-1.1,2.481-2.993V23.094Z" transform="translate(-227.986 -18.016)" fill="#ff0b53"/><path d="M1015.766,0a6.948,6.948,0,0,1,.828.639,26.057,26.057,0,0,1,7.3,14.745,26.591,26.591,0,0,1-7.5,23.095,1.151,1.151,0,0,1-1.125.4,1.069,1.069,0,0,1-.852-.78,1.144,1.144,0,0,1,.321-1.182,24.677,24.677,0,0,0,7.117-19.255,24.371,24.371,0,0,0-7.025-15.576,1.15,1.15,0,0,1-.268-1.561,3.222,3.222,0,0,1,.673-.521h.532" transform="translate(-791.333)" fill="#ff0b53"/><path d="M1000,36.618a20.117,20.117,0,0,1-5.719,14.2,1.292,1.292,0,0,1-1.09.509,1.086,1.086,0,0,1-.968-.744,1.17,1.17,0,0,1,.284-1.225A31.519,31.519,0,0,0,994.6,46.8a17.886,17.886,0,0,0-2.022-22.566,1.148,1.148,0,1,1,1.635-1.589,19.805,19.805,0,0,1,5.681,12.209c.061.629.078,1.263.108,1.76" transform="translate(-774.006 -17.313)" fill="#ff0b53"/><path d="M975.763,54.152a13.13,13.13,0,0,1-3.784,9.244,1.153,1.153,0,0,1-1.345.315,1.041,1.041,0,0,1-.656-1.126,1.864,1.864,0,0,1,.449-.843,11,11,0,0,0-.013-15.215,1.264,1.264,0,0,1-.429-1.19,1.066,1.066,0,0,1,.793-.84,1.146,1.146,0,0,1,1.178.339,13.207,13.207,0,0,1,3.807,9.316" transform="translate(-756.694 -34.679)" fill="#ff0b53"/></g></svg>